<svg version="1.1" xmlns="http://www.w3.org/2000/svg" xmlns:xlink="http://www.w3.org/1999/xlink" width="585.04617" height="341.81499" viewBox="0,0,585.04617,341.81499"><g transform="translate(50.08192,-14.19254)"><g stroke-miterlimit="10"><path d="M499.34403,54.93868v-20.97806h19.47962v20.97806z" fill-opacity="0.50196" fill="#000000" stroke="none" stroke-width="0"/><path d="M395.93608,55.01323v-7.67768h7.12927v7.67768z" fill-opacity="0.50196" fill="#000000" stroke="none" stroke-width="0"/><path d="M391.15376,139.93264v-11.51652h10.69391v11.51652z" fill-opacity="0.50196" fill="#000000" stroke="none" stroke-width="0"/><path d="M449.01091,140.93264v-9.51652h8.83676v9.51652z" fill-opacity="0.50196" fill="#000000" stroke="none" stroke-width="0"/><path d="M504.36805,169.9327v-14.51652h13.47962v14.51652z" fill-opacity="0.50196" fill="#000000" stroke="none" stroke-width="0"/><path d="M440.93948,98.93268v-25.7473h23.90819v25.7473z" fill-opacity="0.50196" fill="#000000" stroke="none" stroke-width="0"/><path d="M193.72551,60.01103l-7.66751,0.39498l-0.36677,-7.11983l7.66751,-0.39498z" fill-opacity="0.50196" fill="#000000" stroke="none" stroke-width="0"/><path d="M278.46988,54.42628l-11.50127,0.59247l-0.55015,-10.67975l11.50127,-0.59247z" fill-opacity="0.50196" fill="#000000" stroke="none" stroke-width="0"/><path d="M282.34948,110.3007l-9.50392,0.48958l-0.45461,-8.82506l9.50392,-0.48958z" fill-opacity="0.50196" fill="#000000" stroke="none" stroke-width="0"/><path d="M314.39779,168.72935l-14.4973,0.74681l-0.69346,-13.46177l14.4973,-0.74681z" fill-opacity="0.50196" fill="#000000" stroke="none" stroke-width="0"/><path d="M240.76518,119.45211l-25.71321,1.32457l-1.22996,-23.87653l25.71321,-1.32457z" fill-opacity="0.50196" fill="#000000" stroke="none" stroke-width="0"/><path d="M90.09517,74.99369l17.71141,11.24212l-10.4391,16.4463l-17.7114,-11.24211z" fill-opacity="0.50196" fill="#000000" stroke="none" stroke-width="0"/><path d="M27.99748,172.68644l6.48214,4.11445l-3.82057,6.01911l-6.48213,-4.11445z" fill-opacity="0.50196" fill="#000000" stroke="none" stroke-width="0"/><path d="M-44.35107,128.20625l9.72319,6.17169l-5.73085,9.02868l-9.72319,-6.17169z" fill-opacity="0.50196" fill="#000000" stroke="none" stroke-width="0"/><path d="M-15.18502,80.39053l8.03463,5.09989l-4.73561,7.46072l-8.03463,-5.09989z" fill-opacity="0.50196" fill="#000000" stroke="none" stroke-width="0"/><path d="M-7.51526,14.19254l12.25604,7.77938l-7.22371,11.38061l-12.25603,-7.77939z" fill-opacity="0.50196" fill="#000000" stroke="none" stroke-width="0"/><path d="M24.02615,96.98833l21.73799,13.79795l-12.81237,20.18526l-21.73799,-13.79795z" fill-opacity="0.50196" fill="#000000" stroke="none" stroke-width="0"/><path d="M71.16451,335.26846l9.921,-5.84842l5.43067,9.21236l-9.921,5.84841z" fill-opacity="0.50196" fill="#000000" stroke="none" stroke-width="0"/><path d="M-13.58729,250.57413l12.50538,-7.3719l6.84533,11.61213l-12.50538,7.3719z" fill-opacity="0.50196" fill="#000000" stroke="none" stroke-width="0"/><path d="M216.22535,235.52456l0.741,-20.96497l19.46746,0.68808l-0.741,20.96497z" fill-opacity="0.50196" fill="#000000" stroke="none" stroke-width="0"/><path d="M331.90878,239.68797l0.2712,-7.67289l7.12482,0.25183l-0.2712,7.67289z" fill-opacity="0.50196" fill="#000000" stroke="none" stroke-width="0"/><path d="M330.12613,324.59742l0.40679,-11.50934l10.68724,0.37774l-0.4068,11.50933z" fill-opacity="0.50196" fill="#000000" stroke="none" stroke-width="0"/><path d="M274.12576,323.61876l0.33614,-9.51058l8.83125,0.31214l-0.33615,9.51058z" fill-opacity="0.50196" fill="#000000" stroke="none" stroke-width="0"/><path d="M213.13883,350.48131l0.51275,-14.50746l13.47121,0.47613l-0.51276,14.50747z" fill-opacity="0.50196" fill="#000000" stroke="none" stroke-width="0"/><path d="M268.61367,281.39767l0.90946,-25.73123l23.89327,0.8445l-0.90946,25.73123z" fill-opacity="0.50196" fill="#000000" stroke="none" stroke-width="0"/><path d="M419.77691,229.43991l-20.97683,-0.2268l0.21059,-19.47848l20.97684,0.2268z" fill-opacity="0.50196" fill="#000000" stroke="none" stroke-width="0"/><path d="M418.73351,332.8426l-7.67723,-0.083l0.07707,-7.12885l7.67723,0.083z" fill-opacity="0.50196" fill="#000000" stroke="none" stroke-width="0"/><path d="M503.59631,338.54273l-11.51585,-0.1245l0.11561,-10.69328l11.51585,0.1245z" fill-opacity="0.50196" fill="#000000" stroke="none" stroke-width="0"/><path d="M505.22175,280.69972l-9.51596,-0.10288l0.09553,-8.83625l9.51597,0.10289z" fill-opacity="0.50196" fill="#000000" stroke="none" stroke-width="0"/><path d="M534.81853,225.65942l-14.51568,-0.15695l0.14573,-13.47883l14.51567,0.15695z" fill-opacity="0.50196" fill="#000000" stroke="none" stroke-width="0"/><path d="M463.1369,288.31664l-25.7458,-0.27836l0.25847,-23.90679l25.74579,0.27836z" fill-opacity="0.50196" fill="#000000" stroke="none" stroke-width="0"/><text transform="translate(262.24968,329.60044) scale(0.70479,0.70479)" font-size="40" xml:space="preserve" fill="#ffa048" stroke="#b77333" stroke-width="2" font-family="Lilita One Regular" font-weight="normal" text-anchor="start"><tspan x="0" dy="0">Dash|DashBlocks</tspan></text><text transform="translate(205.37059,351.55903) scale(0.4305,0.4305)" font-size="40" xml:space="preserve" fill="#ffa048" stroke="#b77333" stroke-width="2" font-family="Lilita One Regular" font-weight="normal" text-anchor="start"><tspan x="0" dy="0">New features for block-based coding</tspan></text><path d="M199.60625,175.61991l-20.95028,1.07922l-1.00213,-19.45383l20.95028,-1.07922z" fill-opacity="0.50196" fill="#000000" stroke="none" stroke-width="0"/><path d="M84.97961,191.33617l18.07173,-10.65325l9.8923,16.78089l-18.07172,10.65324z" fill-opacity="0.50196" fill="#000000" stroke="none" stroke-width="0"/><path d="M143.70073,291.09494l6.61401,-3.89894l3.62044,6.14156l-6.614,3.89895z" fill-opacity="0.50196" fill="#000000" stroke="none" stroke-width="0"/><path d="M41.86469,287.53457l8.19808,-4.83275l4.48756,7.6125l-8.19808,4.83276z" fill-opacity="0.50196" fill="#000000" stroke="none" stroke-width="0"/><path d="M74.49115,260.1756l22.18022,-13.07521l12.14126,20.5959l-22.18023,13.0752z" fill-opacity="0.50196" fill="#000000" stroke="none" stroke-width="0"/></g></g></svg>
