<svg
   version="1.1"
   width="20"
   height="20"
   viewBox="0 0 20 19.999999"
   id="svg2"
   xmlns="http://www.w3.org/2000/svg"
   xmlns:svg="http://www.w3.org/2000/svg">
  <defs
     id="defs2" />
  <path
     d="m 10.662619,2.5251201 c 1.594996,0.1477509 3.042214,0.7622322 4.251368,1.8047193 0.161841,0.1395403 0.524233,0.4960397 0.668487,0.6578529 1.100085,1.2324656 1.735737,2.6947681 1.896414,4.362296 0.02815,0.2955119 0.02815,1.0061517 0,1.3016637 -0.139556,1.449404 -0.632148,2.731123 -1.485927,3.861569 -0.24745,0.328344 -0.431588,0.537072 -0.741197,0.840795 -0.357693,0.352976 -0.681397,0.61682 -1.077799,0.883022 -1.056678,0.707117 -2.217748,1.116383 -3.523061,1.241851 -0.295545,0.02815 -1.0062545,0.02815 -1.3017996,0 C 7.8420663,17.333477 6.5097694,16.80343 5.3498847,15.88876 4.7541166,15.418526 4.19,14.811081 3.7736509,14.1884 3.0558941,13.117757 2.6477667,11.965039 2.5211103,10.651652 c -0.028148,-0.295512 -0.028148,-1.0061417 0,-1.3016536 C 2.5938094,8.5912894 2.7544967,7.913492 3.0172057,7.2485928 3.3444123,6.4195214 3.8111851,5.6666742 4.4175239,4.9877025 4.5617678,4.8258791 4.9241697,4.4693797 5.0860113,4.3298394 6.3725625,3.2216774 7.9382458,2.5931337 9.6423004,2.5028471 c 0.1806137,-0.00911 0.8303386,0.00506 1.0203286,0.022273 z M 8.8389349,5.4579459 C 8.3627761,5.6185949 7.9593366,5.8754024 7.6708387,6.197895 7.4093042,6.4922427 7.2908492,6.7713232 7.2709127,7.1360231 c -0.012859,0.2474225 0.032806,0.3822955 0.1771002,0.5265233 0.09619,0.096179 0.1782647,0.1407146 0.2885081,0.1559615 0.098518,0.012858 0.2673869,-0.00304 0.3354182,-0.032802 0.073914,-0.032802 0.2451114,-0.204051 0.4069631,-0.405743 C 8.6559924,7.1583264 8.8717913,6.942562 9.0031357,6.8557884 9.2447336,6.6974781 9.5027445,6.6294544 9.8651363,6.6306389 c 0.2662227,0 0.4421487,0.03756 0.6391747,0.1325142 0.14308,0.069147 0.221651,0.1266421 0.353016,0.2579819 0.297894,0.2990351 0.415174,0.6039219 0.384677,1.0049672 -0.03524,0.4549865 -0.252158,0.8079729 -0.640349,1.041333 C 10.406977,9.1835382 10.22284,9.2468441 9.8592839,9.321894 9.3397385,9.4286018 9.2599923,9.4626187 9.2165956,9.602159 c -0.017618,0.057505 -0.019947,0.1336784 -0.019947,0.721179 0,0.595701 0.00203,0.663725 0.02106,0.732913 0.05984,0.216939 0.1782646,0.34593 0.3776302,0.412769 0.1161161,0.03867 0.3401062,0.03867 0.4503502,-0.001 0.147767,-0.05164 0.269746,-0.152451 0.329555,-0.270883 0.07037,-0.13955 0.07391,-0.163007 0.07979,-0.558191 l 0.0051,-0.3647 0.253323,-0.05629 c 0.408141,-0.08909 0.648554,-0.171208 0.904216,-0.3060608 0.494921,-0.2615051 0.817449,-0.6285436 0.979281,-1.1116751 0.09386,-0.280265 0.13018,-0.5394213 0.13018,-0.9451643 0,-0.3259955 -0.01407,-0.4655459 -0.06571,-0.6742843 C 12.560531,6.7726798 12.347061,6.3903944 12.058553,6.1007544 11.614056,5.6539685 10.979589,5.3713648 10.258319,5.299828 9.7505087,5.24941 9.3153975,5.2978032 8.8392387,5.4581383 Z M 9.2974961,13.688837 C 9.1426815,13.837772 9.0746602,13.982 9.0652843,14.188389 c -0.011745,0.231012 0.051639,0.408092 0.2005502,0.557007 0.094975,0.09496 0.1946878,0.157136 0.3225187,0.201702 0.1207939,0.041 0.3072701,0.04343 0.4233758,0.003 0.449175,-0.153623 0.660276,-0.655525 0.444487,-1.05657 C 10.392832,13.776261 10.327211,13.693 10.247465,13.6285 10.167678,13.56512 10.037528,13.499499 9.9589566,13.484262 9.7021101,13.435062 9.496882,13.498332 9.2974961,13.688313 Z"
     id="path1"
     style="fill:#855cd6;fill-opacity:1;stroke-width:1.01246" />
</svg>
