<svg
   viewBox="0 0 20 20"
   version="1.1"
   id="svg1"
   width="20"
   height="20"
   xmlns="http://www.w3.org/2000/svg"
   xmlns:svg="http://www.w3.org/2000/svg">
  <defs
     id="defs1" />
  <path
     d="M 4.2158379,14.287785 H 16.03236 c 1.083646,0 1.96764,-0.90186 1.96764,-2.017754 0,-1.114839 -0.884583,-2.017753 -1.96764,-2.017753 -0.305952,0 -0.598075,0.07128 -0.866128,0.207571 l -0.444153,0.225837 0.07182,-0.493069 c 0.0033,-0.02279 0.0055,-0.04659 0.0068,-0.07349 0.0015,-0.03049 0.0018,-0.05641 0.0018,-0.119123 0,-2.3707488 -1.874351,-4.2877841 -4.187684,-4.2877841 -1.2684216,0 -2.4450213,0.5819938 -3.237187,1.5684315 L 7.233316,7.4603803 7.0384959,7.3371654 C 6.7781712,7.1725212 6.4823994,7.0861383 6.1690899,7.0861383 c -0.9331561,0 -1.6951865,0.7794105 -1.6951865,1.7399927 0,0.2041476 0.031726,0.3911701 0.096094,0.5636795 l 0.1602128,0.4293812 -0.450223,-0.085648 c -0.00232,-4.423e-4 -0.00966,-0.00114 -0.020844,-0.00155 -0.010743,-4.072e-4 -0.019176,-4.888e-4 -0.043304,-5.038e-4 -1.2219556,-1.49e-5 -2.2158389,1.0201481 -2.2158389,2.2789661 0,1.261622 0.9917713,2.277327 2.215838,2.277327 z"
     id="Fill-1"
     stroke="#000000"
     fill="#4d4d4d"
     style="fill:#855cd6;fill-opacity:1;stroke:none;stroke-width:0;stroke-dasharray:none" />
</svg>
