<svg
   viewBox="0 0 20 20"
   version="1.1"
   id="svg1"
   width="20"
   height="20"
   xmlns="http://www.w3.org/2000/svg"
   xmlns:svg="http://www.w3.org/2000/svg">
  <defs
     id="defs1" />
  <path
     d="m 16.425995,11.337955 c -0.002,0.01926 -0.0038,0.03853 -0.0058,0.05779 -0.123297,0.967101 -0.552905,1.862921 -1.277267,2.662416 -0.0077,0.0096 -0.01734,0.01926 -0.02697,0.0289 -0.531713,0.564463 -1.240663,1.061498 -2.167308,1.518078 -1.433312,0.703171 -2.779933,1.076912 -4.0109628,1.113515 -0.1926491,0.01155 -0.498962,0.02504 -0.915085,0.04238 -0.6781263,0.02697 -0.6993173,0.02697 -0.7551854,0.02697 H 6.4467516 c -0.096325,0.0096 -0.1907229,0.01541 -0.285122,0.01541 -0.5374915,0 -1.0537922,-0.159899 -1.4949599,-0.460432 C 4.0501915,15.923014 3.6514071,15.279563 3.5435232,14.530158 3.4818751,14.092843 3.5570065,13.645895 3.7612171,13.252891 4.1349567,12.530455 4.7822597,12.025713 5.56827,11.817652 5.5239605,11.058613 5.4565338,9.8892305 5.3679147,8.3075778 5.2985603,8.282533 5.2311337,8.255562 5.1637055,8.2266648 4.1831201,7.8028356 3.5743465,6.9147216 3.5743465,5.9090913 c 0,-0.3775934 0.086693,-0.7474807 0.2581511,-1.1019555 0.4758449,-1.0094842 1.4872537,-1.6105499 2.7067255,-1.6105499 0.1656781,0 0.3737395,0.013483 0.6935387,0.042384 0.015412,0.00192 0.030823,0.00385 0.048162,0.00578 0.017339,0.00192 0.034677,0.00385 0.050089,0.00578 0.057794,-0.00385 0.1175162,-0.00578 0.1830167,-0.00578 0.1753105,0 0.4681387,0.011557 1.4294595,0.094398 0.6954649,0.0655 1.252222,0.1444872 1.716509,0.2388848 0.01155,0.00385 0.02504,0.00578 0.03661,0.00771 1.980438,0.4450199 3.614106,1.6799043 4.860547,3.673826 0.0038,0.00771 0.0077,0.015412 0.01156,0.023119 0.250445,0.4122707 0.479697,0.9497623 0.716656,1.6895369 0.002,0.00771 0.0038,0.013483 0.0058,0.019265 0.190723,0.6164782 0.233107,1.3620324 0.134855,2.3464714 z"
     fill="none"
     stroke="#ffffff"
     stroke-width="1.04521"
     id="path1-2"
     style="stroke:#855cd6;stroke-opacity:1" />
  <path
     d="m 14.317599,11.12796 c -0.06782,0.531136 -0.316523,1.033757 -0.745746,1.508255 -0.350238,0.372776 -0.870005,0.728601 -1.558919,1.067471 -1.175163,0.576214 -2.2312678,0.875784 -3.1686995,0.898131 -0.1807052,0.01155 -0.4829717,0.02543 -0.9066083,0.04238 -0.4236365,0.01695 -0.6467237,0.02543 -0.6694571,0.02543 H 6.3024168 c -0.1695321,0.0341 -0.3165233,0.0087 -0.4405899,-0.07629 -0.1242594,-0.08457 -0.1974661,-0.205941 -0.2203906,-0.364299 0.1583586,-0.305157 0.4687165,-0.435002 0.9320383,-0.38973 0.7228212,0.06782 1.1354771,0.08457 1.237003,0.05086 0,-0.248324 -0.011363,-0.581801 -0.033907,-0.999658 -0.04508,-0.576216 -0.073591,-0.926259 -0.084572,-1.050711 C 7.6353598,10.890811 7.5394196,9.1908718 7.403987,6.739214 7.3924299,6.5696819 7.3643018,6.4456168 7.3192218,6.3662448 c -0.056638,-0.033907 -0.1300378,-0.033907 -0.2203906,0 -0.1128918,0.033907 -0.2485171,0.05086 -0.4064905,0.05086 -0.2487098,0 -0.4775785,-0.044888 -0.6862178,-0.1354326 C 5.7970983,6.1913191 5.6926816,6.0672529 5.6926816,5.9087031 c 0,-0.056446 0.016953,-0.1184792 0.05086,-0.1864852 0.124452,-0.271058 0.3895373,-0.4064905 0.7964131,-0.4064905 0.090352,0 0.2541045,0.011363 0.4914484,0.033907 0.1920712,0.022733 0.3330913,0.028127 0.4236366,0.016953 0.090352,-0.011169 0.5253551,0.016953 1.3046222,0.084572 0.5987544,0.056638 1.0902044,0.124452 1.4743461,0.2034372 1.411929,0.3165232 2.586706,1.2258296 3.524717,2.7283033 0.157972,0.2600772 0.327312,0.6721536 0.508402,1.2370029 0.101334,0.3276965 0.118287,0.8301272 0.05047,1.5080612 z m -1.253955,0.711647 c 0.225786,-0.372777 0.339062,-0.77946 0.339062,-1.220049 0,-1.0616913 -0.581994,-2.1181816 -1.745405,-3.1686993 C 11.510311,7.3152335 11.1882,7.1117964 10.691357,6.8407384 10.024596,6.4908864 9.2620896,6.2986226 8.4036431,6.2647159 c 0.112892,2.5984564 0.2203906,4.5187881 0.321918,5.7613771 0.04508,0.406683 0.112892,1.011217 0.2034372,1.813216 0.5873885,0.03391 1.2541487,-0.09883 1.9997027,-0.398207 0.745553,-0.299184 1.378021,-0.697391 1.897983,-1.194619 0.01078,-0.01117 0.09016,-0.146799 0.236958,-0.406876 z"
     fill="#ffffff"
     stroke="none"
     stroke-width="0.149317"
     id="path2"
     style="fill:#855cd6;fill-opacity:1" />
</svg>
