<svg
   viewBox="0 0 20 20"
   version="1.1"
   id="svg1"
   width="20"
   height="20"
   xmlns="http://www.w3.org/2000/svg"
   xmlns:svg="http://www.w3.org/2000/svg">
  <defs
     id="defs1" />
  <path
     d="m 2.5,10 c 0,-4.142136 3.357864,-7.5 7.5,-7.5 4.142136,0 7.5,3.357864 7.5,7.5 0,4.142136 -3.357864,7.5 -7.5,7.5 -4.142136,0 -7.5,-3.357864 -7.5,-7.5 z m 8.375937,-1.5069753 c 0,-0.4747745 -0.384881,-0.859655 -0.859655,-0.859655 -0.4747747,0 -0.8596552,0.3848805 -0.8596552,0.859655 0,0.046546 0,5.8817163 0,5.9350923 0,0.474775 0.3848805,0.859655 0.8596552,0.859655 0.474774,0 0.859655,-0.38488 0.859655,-0.859655 0,-0.05338 0,-5.8885462 0,-5.9350923 z M 10.027135,6.7389803 c 0.474775,0 0.859655,-0.3848804 0.859655,-0.859655 0,-0.4747745 -0.38488,-0.859655 -0.859655,-0.859655 -0.4747746,0 -0.859655,0.3848805 -0.859655,0.859655 0,0.4747746 0.3848804,0.859655 0.859655,0.859655 z"
     id="path1"
     style="mix-blend-mode:normal;fill:#855cd6;fill-opacity:1;stroke-width:0" />
</svg>
