<svg version="1.1" xmlns="http://www.w3.org/2000/svg" xmlns:xlink="http://www.w3.org/1999/xlink" width="175.70906" height="188.00644" viewBox="0,0,175.70906,188.00644"><g transform="translate(-152.33355,-85.53204)"><g data-paper-data="{&quot;isPaintingLayer&quot;:true}" fill-rule="nonzero" stroke-miterlimit="10" stroke-dasharray="" stroke-dashoffset="0" style="mix-blend-mode: normal"><path d="M159.70843,245.19615l0.36775,-142.03898l161.07347,-0.73216l-1.10324,142.77114c0,0 -12.98302,0.73216 -31.25855,0.73216c-8.3679,0 -9.38913,6.22675 -14.59551,12.4027c-5.03397,5.97143 -5.87324,6.5325 -7.95037,6.86419c-7.90794,1.26279 -15.49712,1.47147 -22.56957,1.59329c-10.9665,0.18889 -20.69057,-0.34517 -28.43407,-1.45794c-0.71944,-0.10339 -3.10268,-0.43112 -4.15859,-1.49706c-2.57778,-2.60226 -4.90844,-7.4223 -8.48301,-11.28363c-3.97507,-4.29397 -8.17298,-7.3537 -9.05551,-7.3537c-14.32781,0 -33.83278,0 -33.83278,0z" fill="none" stroke="#b36d3a" stroke-width="13.5" stroke-linecap="round" stroke-linejoin="round"/><path d="M159.83355,235.80319l0.36608,-142.03898l160.34298,-0.73216l-1.09824,142.77114c0,0 -12.92413,0.73216 -31.11679,0.73216c-8.32995,0 -9.34656,6.22675 -14.52933,12.4027c-5.01114,5.97143 -5.84659,6.53249 -7.91431,6.86418c-7.87207,1.26279 -15.42684,1.47147 -22.46722,1.59329c-10.91676,0.18889 -20.59674,-0.34517 -28.30511,-1.45794c-0.71617,-0.10339 -3.08862,-0.43113 -4.13974,-1.49707c-2.56608,-2.60226 -4.88618,-7.42229 -8.44454,-11.28363c-3.95704,-4.29396 -8.13591,-7.3537 -9.01445,-7.3537c-14.26282,0 -33.67934,0 -33.67934,0z" fill="#ff8e4c" stroke="#ffb389" stroke-width="15" stroke-linecap="round" stroke-linejoin="round"/><path d="M159.95867,235.19615l1.46432,-141.30682h158.1465v141.30683c0,0 -12.92413,0.73216 -31.11679,0.73216c-8.32995,0 -9.34655,5.86067 -14.52932,12.03662c-5.01114,5.97143 -5.84659,6.89857 -7.91431,7.23027c-20.07846,3.22087 -38.09273,1.96575 -50.77234,0.13535c-4.40883,-0.63645 -8.39409,-8.60258 -13.07403,-14.0528c-3.46465,-4.03491 -6.53252,-6.0816 -8.52468,-6.0816c-14.26282,0 -33.67934,0 -33.67934,0z" fill="#ff8e4c" stroke="#ff8e4c" stroke-width="2.5" stroke-linecap="round" stroke-linejoin="round"/><path d="M288.01712,178.40624c-0.01428,0.14282 -0.02857,0.28564 -0.04285,0.42846c-0.91406,7.16965 -4.09898,13.81085 -9.46907,19.73794c-0.05713,0.07141 -0.12854,0.14282 -0.19995,0.21423c-3.94187,4.18467 -9.19771,7.86947 -16.06743,11.25434c-10.62592,5.21299 -20.60915,7.98373 -29.73545,8.25509c-1.42821,0.08569 -3.69908,0.18567 -6.78402,0.31421c-5.02732,0.19995 -5.18442,0.19995 -5.59861,0.19995h-6.0842c-0.71411,0.07141 -1.41394,0.11426 -2.11376,0.11426c-3.98472,0 -7.81234,-1.18542 -11.08295,-3.41344c-4.57029,-3.11351 -7.52669,-7.88376 -8.32649,-13.43951c-0.45703,-3.24205 0.09997,-6.55551 1.61388,-9.46907c2.77074,-5.35581 7.56955,-9.09773 13.39667,-10.64021c-0.32849,-5.62717 -0.82837,-14.29644 -1.48535,-26.02209c-0.51416,-0.18567 -1.01403,-0.38562 -1.5139,-0.59985c-7.26962,-3.14208 -11.78278,-9.72615 -11.78278,-17.18143c0,-2.79931 0.6427,-5.54148 1.9138,-8.1694c3.52769,-7.48385 11.02583,-11.93989 20.06644,-11.93989c1.22826,0 2.77074,0.09998 5.14157,0.31421c0.11425,0.01428 0.22852,0.02857 0.35706,0.04284c0.12854,0.01428 0.25708,0.02857 0.37134,0.04284c0.42846,-0.02857 0.87121,-0.04284 1.3568,-0.04284c1.29968,0 3.47057,0.08569 10.59736,0.69982c5.15586,0.4856 9.2834,1.07117 12.7254,1.77099c0.08569,0.02857 0.18567,0.04285 0.27136,0.05713c14.68206,3.29918 26.79333,12.45404 36.03388,27.23607c0.02857,0.05713 0.05713,0.11426 0.0857,0.17139c1.85668,3.05638 3.55625,7.0411 5.31296,12.52545c0.01428,0.05713 0.02857,0.09998 0.04284,0.14282c1.41393,4.57029 1.72814,10.09748 0.99975,17.39567z" fill="none" stroke="#ffffff" stroke-width="7" stroke-linecap="butt" stroke-linejoin="miter"/><path d="M272.38672,176.84806c-0.50273,3.93759 -2.34656,7.6638 -5.52863,11.1815c-2.5965,2.7636 -6.44982,5.40152 -11.55712,7.91375c-8.71212,4.27179 -16.54159,6.49267 -23.4913,6.65834c-1.33966,0.08569 -3.58054,0.18852 -6.72118,0.31421c-3.14065,0.12569 -4.79452,0.18852 -4.96305,0.18852h-7.15965c-1.25683,0.25279 -2.34656,0.06428 -3.26633,-0.56557c-0.9212,-0.62698 -1.46391,-1.52676 -1.63387,-2.70076c1.17399,-2.26229 3.47485,-3.22492 6.90971,-2.88929c5.35867,0.50273 8.4179,0.62699 9.17057,0.37705c0,-1.84097 -0.08426,-4.31321 -0.25136,-7.41101c-0.3342,-4.27179 -0.54558,-6.86686 -0.62699,-7.78949c-0.41989,-7.03539 -1.13115,-19.63797 -2.13518,-37.81344c-0.08569,-1.25683 -0.29421,-2.1766 -0.62841,-2.76503c-0.41989,-0.25136 -0.96404,-0.25136 -1.63388,0c-0.83694,0.25136 -1.8424,0.37705 -3.01354,0.37705c-1.84383,0 -3.54054,-0.33277 -5.0873,-1.00403c-1.54961,-0.66984 -2.3237,-1.58961 -2.3237,-2.76503c0,-0.41846 0.12568,-0.87835 0.37704,-1.38251c0.92263,-2.0095 2.88786,-3.01354 5.90425,-3.01354c0.66984,0 1.88382,0.08427 3.64338,0.25137c1.42393,0.16853 2.46939,0.20851 3.14065,0.12568c0.66984,-0.08283 3.89475,0.12569 9.67188,0.62699c4.4389,0.41989 8.08228,0.92263 10.93014,1.5082c10.4674,2.34656 19.17665,9.08773 26.13064,20.22639c1.17113,1.92809 2.42653,4.98305 3.76906,9.17058c0.75124,2.42939 0.87693,6.15418 0.3742,11.18007zM263.09047,182.12388c1.67387,-2.7636 2.51366,-5.77856 2.51366,-9.04489c0,-7.87089 -4.31464,-15.70323 -12.93964,-23.49129c-1.08973,-1.00546 -3.47771,-2.51366 -7.16108,-4.52316c-4.94305,-2.59364 -10.59593,-4.019 -16.96006,-4.27036c0.83694,19.26378 1.63388,33.50023 2.38655,42.71222c0.3342,3.01496 0.83694,7.4967 1.5082,13.44236c4.35463,0.25136 9.29769,-0.73267 14.82488,-2.95212c5.5272,-2.21802 10.21603,-5.17014 14.07078,-8.85637c0.07998,-0.08283 0.66841,-1.0883 1.75671,-3.01639z" fill="#ffffff" stroke="#ffffff" stroke-width="0" stroke-linecap="butt" stroke-linejoin="miter"/></g></g></svg>