<svg
   width="20"
   height="20"
   version="1.1"
   id="svg1"
   xmlns="http://www.w3.org/2000/svg"
   xmlns:svg="http://www.w3.org/2000/svg">
  <defs
     id="defs1" />
  <path
     fill="#855CD6"
     fill-rule="evenodd"
     d="m 9.09,5.282 a 3.816,3.816 0 0 1 3.804,3.806 c 0,2.1 -1.72,3.805 -3.805,3.805 A 3.807,3.807 0 0 1 5.284,9.088 c 0,-2.1 1.705,-3.806 3.805,-3.806 m 7.579,9.772 -2.122,-2.123 c -0.245,-0.246 -0.279,-0.62 -0.111,-0.925 0.852,-1.579 1.06,-3.593 0.144,-5.568 a 5.949,5.949 0 0 0 -3.867,-3.229 6.104,6.104 0 0 0 -7.61,7.017 c 0.403,2.223 2.101,4.093 4.273,4.708 a 6.08,6.08 0 0 0 4.617,-0.5 0.778,0.778 0 0 1 0.928,0.11 l 2.136,2.124 c 0.213,0.228 0.502,0.335 0.807,0.335 0.289,0 0.578,-0.107 0.805,-0.335 a 1.146,1.146 0 0 0 0,-1.614"
     id="path1"
     style="fill:#575e75;fill-opacity:1" />
</svg>
